<svg id="Layer_1" data-name="Layer 1" xmlns="http://www.w3.org/2000/svg" viewBox="0 0 725.67 432.82"><defs><style>.cls-1{fill:#024b80;}.cls-2{fill:#fbb902;}.cls-3{fill:#fdfdfd;}</style></defs><path class="cls-1" d="M681.31,358.13c.66-.29,1.52-.41,1.94-.9,22.55-26.5,52-32.49,85.38-32,74.47,1.09,149,.31,223.44.35,52.13,0,82.13,30.11,82.23,82.46q.26,136,.36,272c0,41.36-33.3,75.31-74.61,75.43q-125.74.36-251.51,0c-23.58,0-43.23-9.33-59.42-26.27-2.45-2.57-4.18-6-7.88-7.15-12.36-19.42-14.08-41-13.16-63.21.61-14.73.35-29.51,0-44.26-.27-13.45-6-18.1-19.27-17.55-8.34.35-14.06,5.16-19.48,10.35-24.79,23.7-54.79,30.8-86.87,22.78-37.86-9.47-61.49-35.42-68.5-73.93-7.21-39.63,7.27-72.08,40.48-94.06,32.17-21.31,66.16-21.15,99.56-.85,8.9,5.41,15.23,14.13,24.67,18.81,5.65,2.81,11.42,7.63,17.77,3.94,7.48-4.33,12.52-10.53,11.94-20.59-.81-14,.38-28.08-.34-42.08C666.93,399.05,669.37,377.66,681.31,358.13ZM785,541.2h-.21c0,40.27.11,80.54-.11,120.81,0,5.67.51,8.23,7.38,7.92,15.43-.7,30.92-.54,46.37-.13,7.15.19,9.23-2.21,9.11-9.35-.42-25.16.1-50.34-.34-75.5-.13-7.16,1.87-9.36,9.05-9.24,21.21.36,42.44.39,63.64-.13,37.34-.91,65-25.12,72.92-58.51,11.54-48.94-16.18-104.24-78-105-40.26-.48-80.54-.24-120.8-.62-6.77-.07-9.27,1.31-9.18,8.93C785.22,460.66,785,500.93,785,541.2Z" transform="translate(-348.99 -323.59)"/><path class="cls-2" d="M681.31,358.13c-11.94,19.53-14.38,40.92-13.22,63.29.72,14-.47,28.1.34,42.08.58,10.06-4.46,16.26-11.94,20.59-6.35,3.69-12.12-1.13-17.77-3.94-9.44-4.68-15.77-13.4-24.67-18.81-33.4-20.3-67.39-20.46-99.56.85-33.21,22-47.69,54.43-40.48,94.06,7,38.51,30.64,64.46,68.5,73.93,32.08,8,62.08.92,86.87-22.78,5.42-5.19,11.14-10,19.48-10.35,13.32-.55,19,4.1,19.27,17.55.3,14.75.56,29.53,0,44.26-.92,22.26.8,43.79,13.16,63.21-38.65,26.27-81.75,36.78-127.86,33.87-91-5.73-165.38-63.82-194-150.27C320.21,487.3,395.91,355.25,517.48,329c53.63-11.59,104.19-4.49,152.35,21.3C673.93,352.47,678.27,354.37,681.31,358.13Z" transform="translate(-348.99 -323.59)"/><path class="cls-3" d="M785,541.2c0-40.27.24-80.54-.22-120.81-.09-7.62,2.41-9,9.18-8.93,40.26.38,80.54.14,120.8.62,61.87.75,89.59,56.05,78,105-7.87,33.39-35.58,57.6-72.92,58.51-21.2.52-42.43.49-63.64.13-7.18-.12-9.18,2.08-9.05,9.24.44,25.16-.08,50.34.34,75.5.12,7.14-2,9.54-9.11,9.35-15.45-.41-30.94-.57-46.37.13-6.87.31-7.41-2.25-7.38-7.92.22-40.27.11-80.54.11-120.81Zm96.51-75.48c-11.07,0-19.33.11-27.58,0-5.07-.09-6.83,2-6.74,7.12.28,16.15.39,32.32-.06,48.46-.17,6,2.2,7.52,7.49,7.42,8.61-.17,17.23-.08,25.85,0,12.53.11,24.88-.18,36.27-6.72,10.21-5.87,14.32-14.71,14-26-.32-10.13-2.08-18.24-12.56-24.88C905,462.78,891.74,467.41,881.49,465.72Z" transform="translate(-348.99 -323.59)"/><path class="cls-1" d="M881.49,465.72c10.25,1.69,23.49-2.94,36.63,5.39,10.48,6.64,12.24,14.75,12.56,24.88.36,11.25-3.75,20.09-14,26-11.39,6.54-23.74,6.83-36.27,6.72-8.62-.07-17.24-.16-25.85,0-5.29.1-7.66-1.41-7.49-7.42.45-16.14.34-32.31.06-48.46-.09-5.15,1.67-7.21,6.74-7.12C862.16,465.83,870.42,465.72,881.49,465.72Z" transform="translate(-348.99 -323.59)"/></svg>